<svg xmlns="http://www.w3.org/2000/svg" viewBox="0 0 256 256" role="img" aria-labelledby="title desc">
  <title id="title">115 Instant Transfer</title>
  <desc id="desc">A cloud transfer icon with a forward arrow and a completion check.</desc>
  <rect x="14" y="14" width="228" height="228" rx="58" fill="#17212B"/>
  <rect x="15.5" y="15.5" width="225" height="225" rx="56.5" fill="none" stroke="#334454" stroke-width="3"/>
  <path d="M73 162h105c17 0 31-13 31-29 0-15-11-27-26-29-5-25-27-43-53-43-22 0-41 13-49 33-4-2-9-3-14-3-20 0-36 16-36 36s17 35 42 35Z" fill="#EAF7FF"/>
  <path d="M70 137h78l-15-15 12-12 36 36-36 36-12-12 15-15H70Z" fill="#19B5FE"/>
  <circle cx="184" cy="181" r="31" fill="#F5B942"/>
  <path d="m169 181 10 10 21-25" fill="none" stroke="#17212B" stroke-linecap="round" stroke-linejoin="round" stroke-width="10"/>
  <path d="M64 85c8-10 20-17 33-20" fill="none" stroke="#19B5FE" stroke-linecap="round" stroke-width="6" opacity=".9"/>
</svg>
